<svg width="694" height="1050" viewBox="0 0 694 1050" fill="none" xmlns="http://www.w3.org/2000/svg">
<path opacity="0.4" d="M394.8 300.6C386.3 295.7 380.2 295.6 376.5 300.2C372.7 304.8 370.9 312.6 370.9 323.5V382.5C370.9 393.7 369.9 403 367.8 410.4C365.7 418.1 362.2 423.5 357.4 426.7C352.7 430 346.3 430.8 338.2 429.3C330.3 427.9 320.4 423.7 308.6 416.9L303 413.6V367.1L310.1 371.2C318.6 376.1 324.2 376.7 327 373.2C330 369.7 331.5 362.5 331.5 351.6V299.6C331.5 286 332.8 275.3 335.5 267.5C338.1 259.6 343.4 254.6 351.3 252.4C343.4 241.1 338.1 229.9 335.5 219C332.9 208.1 331.6 195.9 331.6 182.3V130.3C331.6 119.4 330.1 110.4 327.1 103.5C324.3 96.7 318.6 90.8001 310.2 85.9001L303.1 81.8001V35.3L308.7 38.6C320.5 45.4 330.4 52.7001 338.3 60.4001C346.4 68.2001 352.8 76.4 357.5 85.2C362.4 94 365.9 103.4 367.9 113.5C370 123.3 371 133.8 371 145V204C371 214.9 372.9 224.9 376.6 233.8C380.4 242.7 386.5 249.7 394.9 254.5L394.8 300.6Z" fill="url(#paint0_linear_291_5501)"/>
<path opacity="0.4" d="M180.6 129.7C189.1 134.6 195.2 134.7 198.9 130.1C202.7 125.5 204.5 117.7 204.5 106.8V47.7999C204.5 36.5999 205.5 27.2999 207.6 19.8999C209.7 12.1999 213.1 6.79991 217.8 3.49991C222.7 0.299912 229.1 -0.500088 237 0.899912C245.1 2.39991 255.1 6.59991 266.9 13.4999L272.5 16.7999V63.2999L265.4 59.1999C256.9 54.2999 251.2 53.5999 248.2 57.0999C245.4 60.6999 244 67.8999 244 78.8999V130.9C244 144.4 242.7 155.2 240 163C237.4 170.9 232.1 175.9 224.2 178.1C232.1 189.4 237.4 200.6 240 211.5C242.6 222.4 243.9 234.6 243.9 248.2V300.2C243.9 311.1 245.3 320 248.1 326.9C251.1 333.8 256.8 339.8 265.3 344.6L272.4 348.7V395.2L266.8 391.9C255 385.1 245 377.7 236.9 370C229 362.3 222.6 354.1 217.7 345.2C213 336.5 209.6 327.1 207.6 317.1C205.5 307.3 204.5 296.8 204.5 285.6V226.6C204.5 215.7 202.6 205.7 198.9 196.8C195.1 187.9 189 180.9 180.6 176.1V129.7Z" fill="url(#paint1_linear_291_5501)"/>
<path opacity="0.15" d="M423.7 13.1001L634.8 135L634.7 641.1L423.6 519.3L423.7 13.1001Z" fill="url(#paint2_linear_291_5501)"/>
<path d="M384 79.3999L552 176.3V222.8L384 125.9V79.3999Z" fill="#6366F1"/>
<path opacity="0.2" d="M451.2 294.7L610.4 386.6V527.3L451.2 435.4V294.7Z" fill="url(#paint3_linear_291_5501)"/>
<path opacity="0.15" d="M449.6 186.8L611.2 280.1V296L449.6 202.7V186.8Z" fill="white"/>
<path opacity="0.15" d="M449.6 218.8L589.3 299.4V315.3L449.6 234.7V218.8Z" fill="white"/>
<path opacity="0.15" d="M449.6 250.4L568.2 318.8V334.7L449.6 266.3V250.4Z" fill="white"/>
<path opacity="0.2" d="M423.7 13.1001L634.8 135V202.8L423.6 81.0001L423.7 13.1001Z" fill="url(#paint4_linear_291_5501)"/>
<path opacity="0.2" d="M476.4 77.9C476.4 88.2 470.4 93 463 88.7C455.6 84.4 449.6 72.7 449.6 62.4C449.6 52.1 455.6 47.3 463 51.6C470.4 55.9 476.4 67.7 476.4 77.9Z" fill="white"/>
<path opacity="0.15" d="M43.3002 168.1L693.1 543.1L693 1049.5L43.2002 674.5L43.3002 168.1Z" fill="url(#paint5_linear_291_5501)"/>
<path d="M0.200195 292.9L168.1 389.8V436.3L0.200195 339.5V292.9Z" fill="#EC4899"/>
<path opacity="0.15" d="M87.0996 420.7L459.9 635.9V651.8L87.0996 436.6V420.7Z" fill="white"/>
<path opacity="0.15" d="M87.0996 452.7L408.7 638.3V654.2L87.0996 468.6V452.7Z" fill="white"/>
<path opacity="0.15" d="M87.0996 484.4L360.8 642.4V658.3L87.0996 500.3V484.4Z" fill="white"/>
<path opacity="0.2" d="M338.7 686L666.5 875.2V1015.9L338.7 826.7V686Z" fill="url(#paint6_linear_291_5501)"/>
<path opacity="0.15" d="M363.4 728.1L412.8 756.6V803.1L363.4 774.6V728.1Z" fill="white"/>
<path opacity="0.15" d="M423.9 765.3L473.3 793.8V840.3L423.9 811.8V765.3Z" fill="white"/>
<path opacity="0.15" d="M484.7 799.8L534.1 828.3V874.8L484.7 846.3V799.8Z" fill="white"/>
<path opacity="0.15" d="M545.5 836.5L594.9 865V911.5L545.5 883V836.5Z" fill="white"/>
<path opacity="0.2" d="M26.0996 500.2L299 657.7V798.4L26.0996 640.8V500.2Z" fill="url(#paint7_linear_291_5501)"/>
<path opacity="0.15" d="M53.5996 552.1L270.4 677.2V693.1L53.5996 568V552.1Z" fill="white"/>
<path opacity="0.15" d="M53.5996 584.1L227.2 684.3V700.2L53.5996 599.9V584.1Z" fill="white"/>
<path opacity="0.2" d="M43.2998 168.1L692.2 542.7V611.3L43.2998 236.8V168.1Z" fill="url(#paint8_linear_291_5501)"/>
<path opacity="0.2" d="M114 243.2C114 253.5 108 258.3 100.6 254C93.2002 249.7 87.2002 238 87.2002 227.7C87.2002 217.4 93.2002 212.6 100.6 216.9C108 221.2 114 233 114 243.2Z" fill="white"/>
<defs>
<linearGradient id="paint0_linear_291_5501" x1="452.362" y1="21.2656" x2="288.58" y2="305.193" gradientUnits="userSpaceOnUse">
<stop stop-color="white"/>
<stop offset="0.903" stop-color="white" stop-opacity="0"/>
</linearGradient>
<linearGradient id="paint1_linear_291_5501" x1="357.807" y1="2.01701" x2="194.006" y2="285.909" gradientUnits="userSpaceOnUse">
<stop stop-color="white"/>
<stop offset="0.903" stop-color="white" stop-opacity="0"/>
</linearGradient>
<linearGradient id="paint2_linear_291_5501" x1="638.769" y1="137.3" x2="436.914" y2="487.015" gradientUnits="userSpaceOnUse">
<stop stop-color="white"/>
<stop offset="1" stop-color="white" stop-opacity="0"/>
</linearGradient>
<linearGradient id="paint3_linear_291_5501" x1="561.284" y1="358.169" x2="505.182" y2="455.364" gradientUnits="userSpaceOnUse">
<stop stop-color="white"/>
<stop offset="1" stop-color="white" stop-opacity="0"/>
</linearGradient>
<linearGradient id="paint4_linear_291_5501" x1="496.078" y1="14.1516" x2="560.443" y2="196.377" gradientUnits="userSpaceOnUse">
<stop stop-color="white"/>
<stop offset="1" stop-color="white" stop-opacity="0"/>
</linearGradient>
<linearGradient id="paint5_linear_291_5501" x1="477.784" y1="418.833" x2="370.865" y2="604.115" gradientUnits="userSpaceOnUse">
<stop stop-color="white"/>
<stop offset="1" stop-color="white" stop-opacity="0"/>
</linearGradient>
<linearGradient id="paint6_linear_291_5501" x1="533.094" y1="798.18" x2="476.992" y2="895.376" gradientUnits="userSpaceOnUse">
<stop stop-color="white"/>
<stop offset="1" stop-color="white" stop-opacity="0"/>
</linearGradient>
<linearGradient id="paint7_linear_291_5501" x1="192.997" y1="596.485" x2="136.895" y2="693.681" gradientUnits="userSpaceOnUse">
<stop stop-color="white"/>
<stop offset="1" stop-color="white" stop-opacity="0"/>
</linearGradient>
<linearGradient id="paint8_linear_291_5501" x1="204.306" y1="112.826" x2="450.699" y2="530.203" gradientUnits="userSpaceOnUse">
<stop stop-color="white"/>
<stop offset="1" stop-color="white" stop-opacity="0"/>
</linearGradient>
</defs>
</svg>
