<svg id="Layer_1" data-name="Layer 1" xmlns="http://www.w3.org/2000/svg" xmlns:xlink="http://www.w3.org/1999/xlink" viewBox="0 0 500 500" width="53.87" height="43.61"><defs><style>.cls-1{fill:url(#linear-gradient);}.cls-2{fill:url(#radial-gradient);}</style><linearGradient id="linear-gradient" x1="213.83" y1="407.72" x2="311.17" y2="329.63" gradientUnits="userSpaceOnUse"><stop offset="0.01" stop-color="#e04aac"/><stop offset="0.12" stop-color="#d448a8"/><stop offset="0.31" stop-color="#b4429f"/><stop offset="0.57" stop-color="#81388f"/><stop offset="0.88" stop-color="#3a2b7a"/><stop offset="1" stop-color="#1d2671"/></linearGradient><radialGradient id="radial-gradient" cx="41.97" cy="194.64" r="482.91" gradientUnits="userSpaceOnUse"><stop offset="0" stop-color="#6765f0"/><stop offset="0.42" stop-color="#875def"/><stop offset="1" stop-color="#af53ed"/></radialGradient></defs><path class="cls-1" d="M451,318c-9.28,2.74-19.25,6-29.79,9.89a.8.8,0,0,1-.22.07c-.16,0-.31.12-.46.16-41.27,15.4-90.31,40.62-131.77,81.32-19.28,19-50.93,17-68.24-3.88l-12-14.6c-.15-.19-.3-.35-.42-.5a2.38,2.38,0,0,1-.34-.38l-.15-.15-15.22-18.45-.07-.08L180.76,357.6a12.23,12.23,0,0,1,.19-15.9c1.56-1.75,3.12-3.5,4.68-5.21a0,0,0,0,0,0,0c3.19-3.54,6.46-7,9.73-10.35,1.56-1.63,3.12-3.19,4.72-4.75q6.9-6.92,14-13.32c1.9-1.75,3.8-3.42,5.7-5.09s3.85-3.35,5.79-5c7.53-6.42,15.21-12.43,22.93-18.18C354.1,277.49,438.51,312.64,451,318Z"/><path class="cls-2" d="M492,133.82l-6.88,32.23c-.05.13-.05.26-.09.39l-3.49,16.42L453.34,314.72l-.09.57-.49,2.17c.09,0,.31,0,.45,0l-.71,1.37A12,12,0,0,0,451,318c-12.44-5.39-96.85-40.52-202.39-38.27a422.88,422.88,0,0,0-78.93,9,64.61,64.61,0,0,1-28-.22,1.53,1.53,0,0,1-.4-.09,47,47,0,0,1-6.31-1.9h-.09c-.57-.18-1.15-.35-1.67-.57a1.09,1.09,0,0,0-.31-.09c-1.77-.71-3.45-1.55-5.17-2.25a3,3,0,0,1-.53-.22,66.58,66.58,0,0,1-22.25-17.53L85.1,241.93l0-.05-.08-.13L36.23,182.86l0,0a2.91,2.91,0,0,1-.4-.53L10.28,151.48a14.26,14.26,0,0,1,5.29-22.16c142-62.51,281.37-55.75,380.6-35.76h.09A726.78,726.78,0,0,1,482,116.25,15.12,15.12,0,0,1,492,133.82Z"/></svg>